<svg id="visual" viewBox="0 0 900 250" width="900" height="250" xmlns="http://www.w3.org/2000/svg" xmlns:xlink="http://www.w3.org/1999/xlink" version="1.1"><rect x="0" y="0" width="900" height="250" fill="#6e0a03"></rect><path d="M0 122L10 120.2C20 118.3 40 114.7 60 126.8C80 139 100 167 120 165.8C140 164.7 160 134.3 180 123.8C200 113.3 220 122.7 240 126.8C260 131 280 130 300 131.5C320 133 340 137 360 135.5C380 134 400 127 420 125.5C440 124 460 128 480 127.3C500 126.7 520 121.3 540 120.8C560 120.3 580 124.7 600 137C620 149.3 640 169.7 660 178.2C680 186.7 700 183.3 720 182.7C740 182 760 184 780 176.7C800 169.3 820 152.7 840 148.3C860 144 880 152 890 156L900 160L900 251L890 251C880 251 860 251 840 251C820 251 800 251 780 251C760 251 740 251 720 251C700 251 680 251 660 251C640 251 620 251 600 251C580 251 560 251 540 251C520 251 500 251 480 251C460 251 440 251 420 251C400 251 380 251 360 251C340 251 320 251 300 251C280 251 260 251 240 251C220 251 200 251 180 251C160 251 140 251 120 251C100 251 80 251 60 251C40 251 20 251 10 251L0 251Z" fill="#1d1e2b" stroke-linecap="round" stroke-linejoin="miter"></path></svg>