<svg id="visual" viewBox="0 0 960 200" width="960" height="200" xmlns="http://www.w3.org/2000/svg" xmlns:xlink="http://www.w3.org/1999/xlink" version="1.1"><path d="M0 91L26.7 95.3C53.3 99.7 106.7 108.3 160 116.3C213.3 124.3 266.7 131.7 320 128.7C373.3 125.7 426.7 112.3 480 111.8C533.3 111.3 586.7 123.7 640 129.2C693.3 134.7 746.7 133.3 800 130.8C853.3 128.3 906.7 124.7 933.3 122.8L960 121L960 201L933.3 201C906.7 201 853.3 201 800 201C746.7 201 693.3 201 640 201C586.7 201 533.3 201 480 201C426.7 201 373.3 201 320 201C266.7 201 213.3 201 160 201C106.7 201 53.3 201 26.7 201L0 201Z" fill="#126E60" stroke-linecap="round" stroke-linejoin="miter"></path></svg>