<svg id="visual" viewBox="0 0 960 200" width="960" height="200" xmlns="http://www.w3.org/2000/svg" xmlns:xlink="http://www.w3.org/1999/xlink" version="1.1"><rect x="0" y="0" width="960" height="200" fill="#126e60"></rect><path d="M0 160L60 160L60 104L120 104L120 158L180 158L180 142L240 142L240 120L300 120L300 142L360 142L360 114L420 114L420 97L480 97L480 105L540 105L540 166L600 166L600 142L660 142L660 97L720 97L720 84L780 84L780 142L840 142L840 130L900 130L900 138L960 138L960 119L960 201L960 201L900 201L900 201L840 201L840 201L780 201L780 201L720 201L720 201L660 201L660 201L600 201L600 201L540 201L540 201L480 201L480 201L420 201L420 201L360 201L360 201L300 201L300 201L240 201L240 201L180 201L180 201L120 201L120 201L60 201L60 201L0 201Z" fill="#6e0a03" stroke-linecap="square" stroke-linejoin="miter"></path></svg>