<svg id="visual" viewBox="0 0 960 300" width="960" height="300" xmlns="http://www.w3.org/2000/svg" xmlns:xlink="http://www.w3.org/1999/xlink" version="1.1"><path d="M0 25L74 25L74 31L148 31L148 49L222 49L222 55L295 55L295 67L369 67L369 67L443 67L443 28L517 28L517 31L591 31L591 67L665 67L665 61L738 61L738 46L812 46L812 31L886 31L886 43L960 43L960 31L960 0L960 0L886 0L886 0L812 0L812 0L738 0L738 0L665 0L665 0L591 0L591 0L517 0L517 0L443 0L443 0L369 0L369 0L295 0L295 0L222 0L222 0L148 0L148 0L74 0L74 0L0 0Z" fill="#1d1e2b"></path><path d="M0 103L74 103L74 169L148 169L148 145L222 145L222 100L295 100L295 178L369 178L369 133L443 133L443 97L517 97L517 139L591 139L591 220L665 220L665 190L738 190L738 130L812 130L812 82L886 82L886 148L960 148L960 121L960 29L960 41L886 41L886 29L812 29L812 44L738 44L738 59L665 59L665 65L591 65L591 29L517 29L517 26L443 26L443 65L369 65L369 65L295 65L295 53L222 53L222 47L148 47L148 29L74 29L74 23L0 23Z" fill="#222839"></path><path d="M0 133L74 133L74 205L148 205L148 181L222 181L222 154L295 154L295 211L369 211L369 169L443 169L443 142L517 142L517 157L591 157L591 238L665 238L665 244L738 244L738 178L812 178L812 106L886 106L886 196L960 196L960 145L960 119L960 146L886 146L886 80L812 80L812 128L738 128L738 188L665 188L665 218L591 218L591 137L517 137L517 95L443 95L443 131L369 131L369 176L295 176L295 98L222 98L222 143L148 143L148 167L74 167L74 101L0 101Z" fill="#263347"></path><path d="M0 256L74 256L74 250L148 250L148 265L222 265L222 247L295 247L295 274L369 274L369 262L443 262L443 223L517 223L517 253L591 253L591 274L665 274L665 277L738 277L738 250L812 250L812 274L886 274L886 232L960 232L960 241L960 143L960 194L886 194L886 104L812 104L812 176L738 176L738 242L665 242L665 236L591 236L591 155L517 155L517 140L443 140L443 167L369 167L369 209L295 209L295 152L222 152L222 179L148 179L148 203L74 203L74 131L0 131Z" fill="#283f55"></path><path d="M0 301L74 301L74 301L148 301L148 301L222 301L222 301L295 301L295 301L369 301L369 301L443 301L443 301L517 301L517 301L591 301L591 301L665 301L665 301L738 301L738 301L812 301L812 301L886 301L886 301L960 301L960 301L960 239L960 230L886 230L886 272L812 272L812 248L738 248L738 275L665 275L665 272L591 272L591 251L517 251L517 221L443 221L443 260L369 260L369 272L295 272L295 245L222 245L222 263L148 263L148 248L74 248L74 254L0 254Z" fill="#284b63"></path></svg>